<svg width="19" height="19" viewBox="0 0 19 19" fill="none" xmlns="http://www.w3.org/2000/svg">
<path fill-rule="evenodd" clip-rule="evenodd" d="M15.4793 9.4715C15.1564 10.0605 14.5296 10.45 13.8174 10.45H6.7425L5.69788 12.35H17.0937V14.25H5.69788C4.25442 14.25 3.34276 12.7015 4.036 11.4285L5.31803 9.1105L1.89929 1.9H0V0H3.10535L3.99802 1.9H18.0528C18.7745 1.9 19.2304 2.679 18.879 3.306L15.4793 9.4715ZM16.4384 3.8H4.90018L7.15084 8.55H13.8174L16.4384 3.8ZM5.69792 15.2C4.6533 15.2 3.80812 16.055 3.80812 17.1C3.80812 18.145 4.6533 19 5.69792 19C6.74253 19 7.59721 18.145 7.59721 17.1C7.59721 16.055 6.74253 15.2 5.69792 15.2ZM13.3046 17.1C13.3046 16.055 14.1498 15.2 15.1944 15.2C16.239 15.2 17.0937 16.055 17.0937 17.1C17.0937 18.145 16.239 19 15.1944 19C14.1498 19 13.3046 18.145 13.3046 17.1Z" fill="black"/>
</svg>
